<svg version="1.1" id="Layer_1" xmlns="http://www.w3.org/2000/svg" xmlns:xlink="http://www.w3.org/1999/xlink" x="0px" y="0px" viewBox="0 0 40 40" style="fill: rgb(76, 102, 90);" xml:space="preserve" width="80" height="80">
<g>
	<path style="fill:#FFEEA3;stroke:#BA9B48;stroke-miterlimit:2;" d="M1.5,0C4.388,9.125,10.894,19.51,18,26.12l1.5-10.012&#10;&#9;&#9;C15.931,11.882,12.488,5.137,10.405,0"/>
	<path style="fill:#FFEEA3;stroke:#BA9B48;stroke-miterlimit:2;" d="M40,30c-6.994-3.249-15.35-7.956-20.5-13.721v10.733&#10;&#9;&#9;c5.437,4.832,13.737,9.401,20.5,11.737"/>
</g>
<g>
	<path style="fill:#FFEEA3;" d="M25.31,34.611c-8.943-4.51-15.366-11.101-19.624-20.138c2.29-6.32,7.839-8.544,10.007-9.187&#10;&#9;&#9;c3.46,7.825,11.845,16.388,19.057,19.471C33.273,29.472,30.099,32.785,25.31,34.611z"/>
	<path style="fill:#BA9B48;" d="M15.42,5.896c3.581,7.779,11.519,15.891,18.714,19.137c-1.462,4.268-4.417,7.302-8.797,9.031&#10;&#9;&#9;c-8.674-4.423-14.932-10.847-19.11-19.615C8.345,8.858,13.126,6.654,15.42,5.896 M15.979,4.688&#10;&#9;&#9;C15.532,4.811,7.875,6.646,5.146,14.5c4.313,9.25,10.865,16.031,20.135,20.656c5.021-1.854,8.557-5.385,10.078-10.688&#10;&#9;&#9;C27.859,21.469,19.292,12.542,15.979,4.688L15.979,4.688z"/>
</g>
<g>
	<path style="fill:#BA9B48;" d="M11.957,14.511l0.479,0.894c-0.24,0.236-0.275,0.601-0.094,0.94c0.318,0.593,1.081,0.646,1.97,0.148&#10;&#9;&#9;c0,0-0.01-0.018-0.015-0.027c-0.003-0.006-0.011-0.021-0.011-0.021l-0.003-0.006c-0.513,0.02-0.958-0.257-1.227-0.76&#10;&#9;&#9;c-0.439-0.819-0.157-1.745,0.669-2.188c0.897-0.481,1.902-0.136,2.42,0.831c0.333,0.622,0.33,1.271-0.016,1.841&#10;&#9;&#9;c-0.243,0.438-0.674,0.827-1.264,1.142c-1.436,0.77-2.667,0.558-3.269-0.568C11.158,15.916,11.305,15.018,11.957,14.511z&#10;&#9;&#9; M15.055,15.922c0.437-0.234,0.594-0.752,0.357-1.196c-0.237-0.443-0.755-0.604-1.186-0.374c-0.443,0.237-0.587,0.739-0.345,1.19&#10;&#9;&#9;C14.123,15.993,14.621,16.155,15.055,15.922z"/>
</g>
<g>
	<path style="fill:#BA9B48;" d="M14.524,18.971l0.65,0.779c-0.187,0.279-0.148,0.644,0.097,0.939&#10;&#9;&#9;c0.43,0.517,1.189,0.416,1.959-0.253c0,0-0.013-0.016-0.019-0.023c-0.004-0.006-0.016-0.018-0.016-0.018l-0.004-0.005&#10;&#9;&#9;c-0.498,0.123-0.99-0.059-1.355-0.497c-0.595-0.714-0.505-1.678,0.215-2.277c0.783-0.652,1.836-0.517,2.537,0.326&#10;&#9;&#9;c0.452,0.542,0.579,1.178,0.356,1.806c-0.149,0.478-0.494,0.946-1.008,1.373c-1.252,1.042-2.5,1.083-3.316,0.102&#10;&#9;&#9;C14.025,20.508,13.987,19.599,14.524,18.971z M17.841,19.73c0.381-0.317,0.43-0.857,0.108-1.244&#10;&#9;&#9;c-0.322-0.386-0.861-0.441-1.237-0.128c-0.386,0.321-0.426,0.841-0.098,1.235C16.943,19.988,17.463,20.044,17.841,19.73z"/>
</g>
<g>
	<path style="fill:#BA9B48;" d="M17.863,22.793l0.776,0.649c-0.134,0.307-0.03,0.659,0.263,0.904c0.514,0.43,1.24,0.195,1.876-0.597&#10;&#9;&#9;c0,0-0.016-0.014-0.023-0.019c-0.005-0.004-0.018-0.016-0.018-0.016l-0.005-0.004c-0.467,0.209-0.982,0.119-1.418-0.246&#10;&#9;&#9;c-0.711-0.595-0.794-1.556-0.194-2.272c0.651-0.778,1.709-0.834,2.547-0.133c0.54,0.452,0.778,1.054,0.671,1.709&#10;&#9;&#9;c-0.062,0.496-0.316,1.016-0.744,1.527c-1.042,1.246-2.259,1.508-3.235,0.691C17.647,24.39,17.448,23.504,17.863,22.793z&#10;&#9;&#9; M21.252,22.946c0.317-0.38,0.269-0.918-0.115-1.239c-0.384-0.322-0.923-0.279-1.236,0.095c-0.322,0.384-0.269,0.901,0.123,1.229&#10;&#9;&#9;S20.937,23.323,21.252,22.946z"/>
</g>
<g>
	<path style="fill:#BA9B48;" d="M21.132,26.314c0.188-0.286,0.522-0.359,0.824-0.161c0.306,0.201,0.367,0.535,0.179,0.821&#10;&#9;&#9;c-0.188,0.286-0.521,0.365-0.826,0.163C21.005,26.938,20.943,26.601,21.132,26.314z"/>
</g>
<g>
	<path style="fill:#BA9B48;" d="M23.392,26.928l0.903,0.463c-0.062,0.33,0.116,0.651,0.457,0.825&#10;&#9;&#9;c0.598,0.307,1.256-0.084,1.703-0.999c0,0-0.018-0.01-0.027-0.014c-0.006-0.003-0.021-0.011-0.021-0.011l-0.006-0.003&#10;&#9;&#9;c-0.411,0.308-0.934,0.334-1.442,0.073c-0.827-0.424-1.121-1.346-0.693-2.179c0.465-0.906,1.487-1.194,2.461-0.693&#10;&#9;&#9;c0.628,0.322,0.995,0.857,1.035,1.522c0.049,0.498-0.084,1.064-0.389,1.658c-0.744,1.449-1.875,1.974-3.011,1.392&#10;&#9;&#9;C23.535,28.538,23.144,27.716,23.392,26.928z M26.741,26.327c0.227-0.441,0.06-0.957-0.387-1.186&#10;&#9;&#9;c-0.447-0.229-0.964-0.068-1.187,0.367c-0.229,0.448-0.063,0.941,0.393,1.175C26.016,26.917,26.516,26.765,26.741,26.327z"/>
</g>
<polygon style="fill:#B6C9D6;" points="0,40 2,40 9.753,32.002 8,30 0,38 "/>
<g>
	<path style="fill:#788B9C;" d="M20,5c8.411,0,15,6.589,15,15s-6.589,15-15,15S5,28.411,5,20S11.589,5,20,5 M20,4&#10;&#9;&#9;C11.006,4,4,11.006,4,20s7.006,16,16,16s16-7.006,16-16S28.994,4,20,4L20,4z"/>
</g>
<g>
	<path style="fill:#FFFFFF;" d="M20,6c7.85,0,14,6.15,14,14s-6.15,14-14,14S6,27.85,6,20S12.15,6,20,6 M20,5C11.568,5,5,11.568,5,20&#10;&#9;&#9;s6.568,15,15,15c8.432,0,15-6.568,15-15S28.432,5,20,5L20,5z"/>
</g>
<polygon style="fill:#788B9C;" points="3,40 10.354,32.354 9.646,31.646 1.484,40 "/>
<polygon style="fill:#788B9C;" points="0,38.553 8.354,30.354 7.646,29.646 0,37 "/>
</svg>