<?xml version="1.0" encoding="utf-8"?>
<!-- Generator: Adobe Illustrator 18.0.0, SVG Export Plug-In . SVG Version: 6.00 Build 0)  -->
<!DOCTYPE svg PUBLIC "-//W3C//DTD SVG 1.1//EN" "http://www.w3.org/Graphics/SVG/1.1/DTD/svg11.dtd">
<svg xmlns="http://www.w3.org/2000/svg" xmlns:xlink="http://www.w3.org/1999/xlink" version="1.1" id="Слой_1" x="0px" y="0px" viewBox="0 0 128 128" enable-background="new 0 0 128 128" xml:space="preserve" width="64px" height="64px">
<g>
	<g>
		<g>
			<path fill="#FFFFFF" d="M94.5,112h-61c-5.5,0-10-4.5-10-10V22c0-5.5,4.5-10,10-10h61c5.5,0,10,4.5,10,10v80     C104.5,107.5,100,112,94.5,112z"/>
		</g>
	</g>
	<g>
		<g>
			<rect x="33.5" y="22" fill="#C7D7E2" width="61" height="15"/>
		</g>
	</g>
	<g>
		<g>
			<path fill="#C7D7E2" d="M88.5,57h-51c-1.7,0-3-1.3-3-3s1.3-3,3-3h51c1.7,0,3,1.3,3,3S90.2,57,88.5,57z"/>
		</g>
	</g>
	<g>
		<g>
			<path fill="#C7D7E2" d="M88.5,72h-51c-1.7,0-3-1.3-3-3s1.3-3,3-3h51c1.7,0,3,1.3,3,3S90.2,72,88.5,72z"/>
		</g>
	</g>
	<g>
		<g>
			<path fill="#C7D7E2" d="M64,87H37.5c-1.7,0-3-1.3-3-3s1.3-3,3-3H64c1.7,0,3,1.3,3,3S65.7,87,64,87z"/>
		</g>
	</g>
	<g>
		<g>
			<path fill="#454B54" d="M94.5,115h-61c-7.2,0-13-5.8-13-13V22c0-7.2,5.8-13,13-13h61c7.2,0,13,5.8,13,13v80     C107.5,109.2,101.7,115,94.5,115z M33.5,15c-3.9,0-7,3.1-7,7v80c0,3.9,3.1,7,7,7h61c3.9,0,7-3.1,7-7V22c0-3.9-3.1-7-7-7H33.5z"/>
		</g>
	</g>
</g>
</svg>
