<svg xmlns="http://www.w3.org/2000/svg" xmlns:xlink="http://www.w3.org/1999/xlink" version="1.1" id="Layer_1" x="0px" y="0px" viewBox="0 0 40 40" style="fill: rgb(76, 102, 90);" xml:space="preserve" width="100" height="100">
<g>
	<g>
		<polygon style="fill:#DFF0FE;" points="23.5,16.5 23.5,6.207 27.194,9.901 35.388,1.707 38.293,4.612 30.099,12.806 33.793,16.5       "/>
	</g>
	<g>
		<path style="fill:#4788C7;" d="M35.388,2.414l2.198,2.198l-7.487,7.487l-0.707,0.707l0.707,0.707L32.586,16H24V7.414l2.487,2.487    l0.707,0.707l0.707-0.707L35.388,2.414 M35.388,1l-8.194,8.194L23,5v12h12l-4.194-4.194L39,4.612L35.388,1L35.388,1z"/>
	</g>
</g>
<g>
	<g>
		<polygon style="fill:#DFF0FE;" points="1.707,35.388 9.901,27.194 6.207,23.5 16.5,23.5 16.5,33.793 12.806,30.099 4.612,38.293       "/>
	</g>
	<g>
		<path style="fill:#4788C7;" d="M16,24v8.586l-2.487-2.487l-0.707-0.707l-0.707,0.707l-7.487,7.487l-2.198-2.198l7.487-7.487    l0.707-0.707l-0.707-0.707L7.414,24H16 M17,23H5l4.194,4.194L1,35.388L4.612,39l8.194-8.194L17,35V23L17,23z"/>
	</g>
</g>
</svg>