<svg version="1.1" id="Layer_1" xmlns="http://www.w3.org/2000/svg" xmlns:xlink="http://www.w3.org/1999/xlink" x="0px" y="0px" viewBox="0 0 80 80" style="fill: rgb(76, 102, 90);" xml:space="preserve" width="80" height="80">
<g>
	<polygon style="fill:#FFEEA3;" points="19.247,79.5 33.247,45.5 15.232,45.5 32.841,0.5 61.667,0.5 45.667,30.5 63.394,30.5 &#10;&#9;&#9;20.274,79.5 &#9;"/>
	<path style="fill:#C29653;" d="M60.833,1L45.618,29.529L44.833,31H46.5h15.788l-42.24,48h-0.055l13.431-32.619L33.993,45H32.5&#10;&#9;&#9;H15.965L33.183,1H60.833 M62.5,0h-30l-18,46h18l-14,34h2l44-50h-18L62.5,0L62.5,0z"/>
</g>
<polygon style="fill:#FFFFFF;" points="34.114,1.364 34.126,1.333 34.136,1.3 34.231,1 33.183,1 15.965,45 17.039,45 "/>
<polygon style="fill:#FFFFFF;" points="33.993,45 33.425,46.381 19.993,79 20.048,79 21.978,76.807 34.349,46.761 34.918,45.381 &#10;&#9;35.075,45 "/>
</svg>