<svg version="1.1" xmlns="http://www.w3.org/2000/svg" xmlns:xlink="http://www.w3.org/1999/xlink" x="0px" y="0px" width="96" height="96" viewBox="0 0 48 48" enable-background="new 0 0 48 48" xml:space="preserve" style="fill: rgb(76, 102, 90);">
<g>
	<path fill="#90CAF9" d="M4,6c0-1.104,0.896-2,2-2h22c1.104,0,2,0.896,2,2v22c0,1.104-0.896,2-2,2H6c-1.104,0-2-0.896-2-2V6z"/>
	<path fill="#90CAF9" d="M30,18h12c1.104,0,2,0.896,2,2v22c0,1.104-0.896,2-2,2H20c-1.104,0-2-0.896-2-2V30L30,18z"/>
</g>
<g>
	<polygon fill="#1565C0" points="39,29 29,39 39,39 &#9;"/>
	
		<rect x="26.55" y="30.914" transform="matrix(0.7071 0.7071 -0.7071 0.7071 32.9115 -13.6334)" fill="#1565C0" width="12.727" height="4"/>
	<polygon fill="#1565C0" points="9,19 19,9 9,9 &#9;"/>
	
		<rect x="8.636" y="13" transform="matrix(-0.7071 -0.7071 0.7071 -0.7071 15.0012 36.2132)" fill="#1565C0" width="12.727" height="4"/>
</g>
<path fill="#2196F3" d="M18.949,30.465l-1.414-1.414l2.829-2.829l1.414,1.414L18.949,30.465z M23.192,26.222l-1.414-1.414&#10;&#9;l2.828-2.828l1.414,1.414L23.192,26.222z M27.435,21.979l-1.414-1.414l2.829-2.829l1.414,1.414L27.435,21.979z"/>
</svg>